<mxfile host="app.diagrams.net" modified="2024-04-29T05:06:14.044Z" agent="Mozilla/5.0 (Windows NT 10.0; Win64; x64) AppleWebKit/537.36 (KHTML, like Gecko) Chrome/124.0.0.0 Safari/537.36" etag="IzCak1r0HohJZQA48hNg" version="24.3.0" type="device">
  <diagram name="Page-1" id="9lGl8UHit6ipUW20TN7O">
    <mxGraphModel dx="2524" dy="1846" grid="1" gridSize="10" guides="1" tooltips="1" connect="1" arrows="1" fold="1" page="1" pageScale="1" pageWidth="850" pageHeight="1100" math="0" shadow="0">
      <root>
        <mxCell id="0" />
        <mxCell id="1" parent="0" />
        <mxCell id="0C0tykF7nzG6o_tQAHu7-1" value="" style="shape=process;whiteSpace=wrap;html=1;backgroundOutline=1;" parent="1" vertex="1">
          <mxGeometry x="280" y="20" width="250" height="90" as="geometry" />
        </mxCell>
        <mxCell id="0C0tykF7nzG6o_tQAHu7-2" value="" style="rounded=0;whiteSpace=wrap;html=1;" parent="1" vertex="1">
          <mxGeometry x="20" y="180" width="800" height="180" as="geometry" />
        </mxCell>
        <mxCell id="0C0tykF7nzG6o_tQAHu7-3" value="" style="rounded=1;whiteSpace=wrap;html=1;" parent="1" vertex="1">
          <mxGeometry x="140" y="240" width="220" height="70" as="geometry" />
        </mxCell>
        <mxCell id="0C0tykF7nzG6o_tQAHu7-4" value="" style="rounded=1;whiteSpace=wrap;html=1;" parent="1" vertex="1">
          <mxGeometry x="490" y="231.88" width="230" height="76.25" as="geometry" />
        </mxCell>
        <mxCell id="H_qQ221pOA9iHoSm7UkB-2" value="" style="rounded=0;whiteSpace=wrap;html=1;" parent="1" vertex="1">
          <mxGeometry x="40" y="35" width="160" height="85" as="geometry" />
        </mxCell>
        <mxCell id="H_qQ221pOA9iHoSm7UkB-3" value="" style="rounded=0;whiteSpace=wrap;html=1;" parent="1" vertex="1">
          <mxGeometry x="640" y="402.5" width="160" height="85" as="geometry" />
        </mxCell>
        <mxCell id="H_qQ221pOA9iHoSm7UkB-4" value="Department service" style="text;html=1;align=center;verticalAlign=middle;whiteSpace=wrap;rounded=0;" parent="1" vertex="1">
          <mxGeometry x="210" y="255.01" width="60" height="30" as="geometry" />
        </mxCell>
        <mxCell id="H_qQ221pOA9iHoSm7UkB-5" value="Employee service" style="text;html=1;align=center;verticalAlign=middle;whiteSpace=wrap;rounded=0;" parent="1" vertex="1">
          <mxGeometry x="570" y="255" width="60" height="30" as="geometry" />
        </mxCell>
        <mxCell id="H_qQ221pOA9iHoSm7UkB-6" value="API-Gateway" style="text;html=1;align=center;verticalAlign=middle;whiteSpace=wrap;rounded=0;" parent="1" vertex="1">
          <mxGeometry x="360" y="50" width="60" height="30" as="geometry" />
        </mxCell>
        <mxCell id="H_qQ221pOA9iHoSm7UkB-7" value="Service Registry" style="text;html=1;align=center;verticalAlign=middle;whiteSpace=wrap;rounded=0;" parent="1" vertex="1">
          <mxGeometry x="680" y="430" width="60" height="30" as="geometry" />
        </mxCell>
        <mxCell id="H_qQ221pOA9iHoSm7UkB-8" value="Config Server" style="text;html=1;align=center;verticalAlign=middle;whiteSpace=wrap;rounded=0;" parent="1" vertex="1">
          <mxGeometry x="80" y="62.5" width="60" height="30" as="geometry" />
        </mxCell>
        <mxCell id="H_qQ221pOA9iHoSm7UkB-9" value="" style="endArrow=none;html=1;rounded=0;" parent="1" edge="1">
          <mxGeometry width="50" height="50" relative="1" as="geometry">
            <mxPoint x="230" y="240" as="sourcePoint" />
            <mxPoint x="230" y="70" as="targetPoint" />
          </mxGeometry>
        </mxCell>
        <mxCell id="H_qQ221pOA9iHoSm7UkB-10" value="" style="endArrow=none;html=1;rounded=0;entryX=0.003;entryY=0.593;entryDx=0;entryDy=0;entryPerimeter=0;" parent="1" target="0C0tykF7nzG6o_tQAHu7-1" edge="1">
          <mxGeometry width="50" height="50" relative="1" as="geometry">
            <mxPoint x="230" y="73" as="sourcePoint" />
            <mxPoint x="280" y="20" as="targetPoint" />
          </mxGeometry>
        </mxCell>
        <mxCell id="H_qQ221pOA9iHoSm7UkB-11" value="" style="endArrow=none;html=1;rounded=0;" parent="1" edge="1">
          <mxGeometry width="50" height="50" relative="1" as="geometry">
            <mxPoint x="580" y="231.88" as="sourcePoint" />
            <mxPoint x="580" y="70" as="targetPoint" />
          </mxGeometry>
        </mxCell>
        <mxCell id="H_qQ221pOA9iHoSm7UkB-12" value="" style="endArrow=none;html=1;rounded=0;exitX=1.005;exitY=0.578;exitDx=0;exitDy=0;exitPerimeter=0;" parent="1" source="0C0tykF7nzG6o_tQAHu7-1" edge="1">
          <mxGeometry width="50" height="50" relative="1" as="geometry">
            <mxPoint x="530" y="120" as="sourcePoint" />
            <mxPoint x="580" y="70" as="targetPoint" />
          </mxGeometry>
        </mxCell>
        <mxCell id="H_qQ221pOA9iHoSm7UkB-13" value="" style="rounded=0;whiteSpace=wrap;html=1;" parent="1" vertex="1">
          <mxGeometry x="180" y="250" width="300" as="geometry" />
        </mxCell>
        <mxCell id="H_qQ221pOA9iHoSm7UkB-14" value="" style="endArrow=none;dashed=1;html=1;dashPattern=1 3;strokeWidth=2;rounded=0;" parent="1" edge="1">
          <mxGeometry width="50" height="50" relative="1" as="geometry">
            <mxPoint y="520" as="sourcePoint" />
            <mxPoint y="-43.333251953125" as="targetPoint" />
          </mxGeometry>
        </mxCell>
        <mxCell id="H_qQ221pOA9iHoSm7UkB-15" value="" style="endArrow=none;dashed=1;html=1;dashPattern=1 3;strokeWidth=2;rounded=0;" parent="1" edge="1">
          <mxGeometry width="50" height="50" relative="1" as="geometry">
            <mxPoint y="520" as="sourcePoint" />
            <mxPoint x="840" y="520" as="targetPoint" />
          </mxGeometry>
        </mxCell>
        <mxCell id="H_qQ221pOA9iHoSm7UkB-16" value="" style="endArrow=none;dashed=1;html=1;dashPattern=1 3;strokeWidth=2;rounded=0;" parent="1" edge="1">
          <mxGeometry width="50" height="50" relative="1" as="geometry">
            <mxPoint x="840" y="517.67" as="sourcePoint" />
            <mxPoint x="840" y="-40" as="targetPoint" />
          </mxGeometry>
        </mxCell>
        <mxCell id="H_qQ221pOA9iHoSm7UkB-17" value="" style="endArrow=none;dashed=1;html=1;dashPattern=1 3;strokeWidth=2;rounded=0;" parent="1" edge="1">
          <mxGeometry width="50" height="50" relative="1" as="geometry">
            <mxPoint y="-40" as="sourcePoint" />
            <mxPoint x="840" y="-40" as="targetPoint" />
          </mxGeometry>
        </mxCell>
        <mxCell id="H_qQ221pOA9iHoSm7UkB-18" value="" style="endArrow=none;html=1;rounded=0;entryX=0;entryY=0.5;entryDx=0;entryDy=0;exitX=1.003;exitY=0.41;exitDx=0;exitDy=0;exitPerimeter=0;" parent="1" source="0C0tykF7nzG6o_tQAHu7-3" target="0C0tykF7nzG6o_tQAHu7-4" edge="1">
          <mxGeometry width="50" height="50" relative="1" as="geometry">
            <mxPoint x="360" y="275" as="sourcePoint" />
            <mxPoint x="410" y="225" as="targetPoint" />
          </mxGeometry>
        </mxCell>
        <mxCell id="Pyp2FbPz8UoVnV1SVNO6-1" value="" style="triangle;whiteSpace=wrap;html=1;rotation=-90;" parent="1" vertex="1">
          <mxGeometry x="366" y="334.38" width="118.75" height="202.5" as="geometry" />
        </mxCell>
        <mxCell id="Pyp2FbPz8UoVnV1SVNO6-2" value="ZipKin" style="text;html=1;align=center;verticalAlign=middle;whiteSpace=wrap;rounded=0;" parent="1" vertex="1">
          <mxGeometry x="395" y="430" width="60" height="30" as="geometry" />
        </mxCell>
        <mxCell id="Pyp2FbPz8UoVnV1SVNO6-3" value="" style="endArrow=none;html=1;rounded=0;" parent="1" edge="1">
          <mxGeometry width="50" height="50" relative="1" as="geometry">
            <mxPoint x="230" y="440" as="sourcePoint" />
            <mxPoint x="230" y="310" as="targetPoint" />
          </mxGeometry>
        </mxCell>
        <mxCell id="Pyp2FbPz8UoVnV1SVNO6-5" value="" style="endArrow=none;html=1;rounded=0;" parent="1" target="Pyp2FbPz8UoVnV1SVNO6-1" edge="1">
          <mxGeometry width="50" height="50" relative="1" as="geometry">
            <mxPoint x="230" y="440" as="sourcePoint" />
            <mxPoint x="280" y="390" as="targetPoint" />
          </mxGeometry>
        </mxCell>
        <mxCell id="Pyp2FbPz8UoVnV1SVNO6-6" value="" style="endArrow=none;html=1;rounded=0;" parent="1" edge="1">
          <mxGeometry width="50" height="50" relative="1" as="geometry">
            <mxPoint x="480" y="440" as="sourcePoint" />
            <mxPoint x="590" y="440" as="targetPoint" />
          </mxGeometry>
        </mxCell>
        <mxCell id="Pyp2FbPz8UoVnV1SVNO6-7" value="" style="endArrow=none;html=1;rounded=0;" parent="1" edge="1">
          <mxGeometry width="50" height="50" relative="1" as="geometry">
            <mxPoint x="590" y="440" as="sourcePoint" />
            <mxPoint x="590" y="310" as="targetPoint" />
          </mxGeometry>
        </mxCell>
        <mxCell id="BfeXgy9rSS4H8K__au8e-1" value="" style="rounded=0;whiteSpace=wrap;html=1;" vertex="1" parent="1">
          <mxGeometry x="660" y="30" width="120" height="60" as="geometry" />
        </mxCell>
        <mxCell id="BfeXgy9rSS4H8K__au8e-2" value="Security" style="text;html=1;align=center;verticalAlign=middle;whiteSpace=wrap;rounded=0;" vertex="1" parent="1">
          <mxGeometry x="690" y="50" width="60" height="30" as="geometry" />
        </mxCell>
        <mxCell id="BfeXgy9rSS4H8K__au8e-3" value="" style="endArrow=none;html=1;rounded=0;entryX=-0.033;entryY=0.367;entryDx=0;entryDy=0;entryPerimeter=0;" edge="1" parent="1" target="BfeXgy9rSS4H8K__au8e-1">
          <mxGeometry width="50" height="50" relative="1" as="geometry">
            <mxPoint x="530" y="50" as="sourcePoint" />
            <mxPoint x="580" as="targetPoint" />
          </mxGeometry>
        </mxCell>
      </root>
    </mxGraphModel>
  </diagram>
</mxfile>
